<svg width="124" height="38" viewBox="0 0 124 38" fill="none" xmlns="http://www.w3.org/2000/svg">
<path d="M26.1569 20.9273L25.8485 22.3842L27.0029 23.3251C28.9922 24.9464 31.3928 26.1128 34.1185 26.1128C38.1759 26.1128 41.444 22.7927 41.4576 18.7579V18.7497C41.4576 14.6978 38.1831 11.3776 34.1185 11.3776C31.3646 11.3776 29.481 12.7811 28.3312 14.4358C27.2765 15.9535 26.807 17.7005 26.5891 18.8913L26.58 18.9278L26.5712 18.9695L26.1569 20.9273ZM2.94905 19.0125V8.48292H3.01914V19.0125C3.01914 22.9014 6.16729 26.0944 10.07 26.0944C13.9725 26.0944 17.1211 22.9016 17.1211 19.0125V8.48292H17.8406C18.6548 10.8945 19.7639 13.5015 21.136 15.9452L17.1904 16.8373V19.0125C17.1904 23.0035 13.9614 26.2429 10.0606 26.2429C6.15857 26.2429 2.93552 23.0038 2.94903 19.0208H2.94905V19.0125ZM26.8456 17.469C28.0507 13.3543 30.8018 11.2658 34.1183 11.2657H34.1185C38.1853 11.2658 41.527 14.6092 41.527 18.7315C41.527 22.8734 38.175 26.2339 34.1183 26.2339C32.1101 26.2339 30.3478 25.6251 28.76 24.6017L25.7805 22.6814L25.0489 26.1498L23.2608 34.6271H23.1826L25.5944 23.2156L25.831 22.096L25.5826 21.7815L26.8456 17.469Z" fill="#EAEDB6" stroke="#252A3F" stroke-width="4.88235"/>
<path d="M56.7928 11.8185H56.99L57.645 14.4767L56.1376 14.477L56.7928 11.8185Z" fill="#EAEDB6" stroke="#252A3F" stroke-width="4.88235"/>
</svg>
